PathFileType	4	(X/Y/Z)	/Users/itak/Documents/Research/Walk-IL/dataset/trc/00248_00009.trc
DataRate	CameraRate	NumFrames	NumMarkers	Units	OrigDataRate	OrigDataStartFrame	OrigNumFrames
100.000000	100.000000	4	53	mm	100.000000	67	543
Frame#	Time	RPSI			LPSI			L3			STRN			T10			C7			CLAV			RBAK			LBAK			LSHO			LUPA			LAEL			LAOL			LWTS			LWPS			LFRA			LHPS			LHTS			RSHO			RUPA			RAEL			RAOL			RWTS			RWPS			RFRA			RIFD			RHTS			RHPS			RBHD			LFHD			RFHD			LBHD			LHIP			RHIP			RASI			LASI			LKNE			LTHI			LANK			LTIP			LTOE			LMT1			LMT5			LHEE			RKNE			RTHI			RANK			RTIP			RTOE			RMT1			RMT5			RHEE			LIFD			
		X1	Y1	Z1	X2	Y2	Z2	X3	Y3	Z3	X4	Y4	Z4	X5	Y5	Z5	X6	Y6	Z6	X7	Y7	Z7	X8	Y8	Z8	X9	Y9	Z9	X10	Y10	Z10	X11	Y11	Z11	X12	Y12	Z12	X13	Y13	Z13	X14	Y14	Z14	X15	Y15	Z15	X16	Y16	Z16	X17	Y17	Z17	X18	Y18	Z18	X19	Y19	Z19	X20	Y20	Z20	X21	Y21	Z21	X22	Y22	Z22	X23	Y23	Z23	X24	Y24	Z24	X25	Y25	Z25	X26	Y26	Z26	X27	Y27	Z27	X28	Y28	Z28	X29	Y29	Z29	X30	Y30	Z30	X31	Y31	Z31	X32	Y32	Z32	X33	Y33	Z33	X34	Y34	Z34	X35	Y35	Z35	X36	Y36	Z36	X37	Y37	Z37	X38	Y38	Z38	X39	Y39	Z39	X40	Y40	Z40	X41	Y41	Z41	X42	Y42	Z42	X43	Y43	Z43	X44	Y44	Z44	X45	Y45	Z45	X46	Y46	Z46	X47	Y47	Z47	X48	Y48	Z48	X49	Y49	Z49	X50	Y50	Z50	X51	Y51	Z51	X52	Y52	Z52	X53	Y53	Z53	

68	0.67	-1521.4541015625	1056.027099609375	-389.0555419921875	-1505.091674804688	1060.40234375	-507.9403686523438	-1516.29443359375	1133.365966796875	-467.4869995117188	-1273.496704101562	1324.62744140625	-439.9903259277344	-1524.629760742188	1259.399047851562	-464.6471557617188	-1467.875366210938	1522.128173828125	-463.047607421875	-1300.939208984375	1442.062744140625	-441.5361633300781	-1547.040893554688	1381.706665039062	-396.3700561523438	-1475.09521484375	1484.219848632812	-575.1483154296875	-1380.65478515625	1487.089477539062	-621.1506958007812	-1397.137084960938	1366.314086914062	-700.5654907226562	-1371.361328125	1154.787963867188	-717.5905151367188	-1449.87744140625	1138.194091796875	-683.4730834960938	-1293.048706054688	921.6990966796875	-634.5899047851562	-1299.750122070312	904.3296508789062	-719.2783813476562	-1344.788818359375	1047.7724609375	-723.457275390625	-1281.246948242188	816.5405883789062	-710.0890502929688	-1249.47802734375	823.1427001953125	-648.2442016601562	-1429.2001953125	1486.022338867188	-286.6513366699219	-1454.388427734375	1421.950439453125	-220.6006317138672	-1476.93505859375	1139.542724609375	-184.2436218261719	-1499.705932617188	1134.115478515625	-276.3584289550781	-1333.745239257812	924.7079467773438	-218.3315124511719	-1392.914184570312	910.1416625976562	-157.2689666748047	-1450.89208984375	1070.902587890625	-169.6429748535156	-1319.885498046875	732.6285400390625	-225.689208984375	-1295.7685546875	804.0905151367188	-200.4870452880859	-1352.861572265625	803.7611083984375	-153.6258087158203	-1440.932373046875	1677.815307617188	-427.5200805664062	-1221.770385742188	1725.682495117188	-467.2586059570312	-1249.081420898438	1728.363647460938	-371.0177001953125	-1361.782104492188	1681.722290039062	-543.02197265625	-1389.122314453125	993.7800903320312	-634.007568359375	-1438.69677734375	1012.8623046875	-270.7040405273438	-1335.979370117188	1053.865966796875	-295.2166748046875	-1294.151123046875	1033.795043945312	-573.2232055664062	-1378.006103515625	507.619140625	-581.70166015625	-1370.0927734375	650.7163696289062	-615.595703125	-1459.970092773438	38.93562698364258	-570.869873046875	-1425.66650390625	286.06298828125	-589.4700317382812	-1254.09130859375	46.06911468505859	-484.9381103515625	-1329.147705078125	41.93402862548828	-452.0641479492188	-1331.40966796875	38.59651565551758	-570.123779296875	-1528.257568359375	44.75840377807617	-528.6834716796875	-1423.835815429688	518.943359375	-305.9190368652344	-1392.267822265625	785.91064453125	-257.8914794921875	-1498.719848632812	41.28049087524414	-345.1964111328125	-1419.8056640625	404.1370849609375	-324.7455139160156	-1281.035034179688	46.75579452514648	-355.8341369628906	-1331.908447265625	42.49272537231445	-405.7991943359375	-1393.219848632812	42.60762023925781	-302.7299499511719	-1550.6220703125	38.43427658081055	-412.9685974121094	-1280.659545898438	726.8333740234375	-637.7031860351562	
69	0.68	-1521.371337890625	1056.0390625	-388.883056640625	-1504.97900390625	1060.42578125	-507.7638854980469	-1516.230590820312	1133.386840820312	-467.3031616210938	-1273.391357421875	1324.541381835938	-439.8035888671875	-1524.575805664062	1259.423950195312	-464.4427490234375	-1467.688354492188	1522.15185546875	-462.8342590332031	-1300.734130859375	1442.015747070312	-441.3756103515625	-1546.837646484375	1381.759765625	-396.1032104492188	-1474.931640625	1484.199584960938	-574.8966674804688	-1380.452026367188	1487.056396484375	-620.9214477539062	-1397.06005859375	1366.248657226562	-700.3169555664062	-1371.33447265625	1154.719360351562	-717.3023681640625	-1449.85986328125	1138.125	-683.14892578125	-1292.7734375	921.7523803710938	-634.1949462890625	-1299.661499023438	904.2774047851562	-718.78466796875	-1344.750732421875	1047.703857421875	-723.0827026367188	-1281.091186523438	816.5379638671875	-709.5126953125	-1249.279541015625	823.2130126953125	-647.6361083984375	-1428.98486328125	1486.022705078125	-286.4514770507812	-1454.170654296875	1421.947387695312	-220.3809967041016	-1476.886108398438	1139.557495117188	-184.0724639892578	-1499.672119140625	1134.160278320312	-276.1657104492188	-1333.7607421875	924.6881713867188	-218.232666015625	-1392.88330078125	910.1203002929688	-157.1628723144531	-1450.852416992188	1070.908813476562	-169.4895477294922	-1319.9248046875	732.6207885742188	-225.6173553466797	-1295.800170898438	804.0501708984375	-200.4505310058594	-1352.899047851562	803.794677734375	-153.4729919433594	-1440.567138671875	1677.856079101562	-427.21435546875	-1221.338500976562	1725.5361328125	-467.0204162597656	-1248.600463867188	1728.244140625	-370.7919921875	-1361.511352539062	1681.735717773438	-542.7881469726562	-1389.090087890625	993.798828125	-633.8836669921875	-1438.388305664062	1012.841857910156	-270.4229125976562	-1335.82080078125	1053.8134765625	-295.0365905761719	-1294.095336914062	1033.755126953125	-573.033447265625	-1377.994018554688	507.6167297363281	-581.64013671875	-1370.09765625	650.7344970703125	-615.5234985351562	-1459.965576171875	38.93699264526367	-570.8753051757812	-1425.668334960938	286.0695190429688	-589.450439453125	-1254.091064453125	46.07510757446289	-484.9339599609375	-1329.140869140625	41.9365119934082	-452.0672607421875	-1331.41015625	38.59451293945312	-570.1232299804688	-1528.255249023438	44.7392463684082	-528.6800537109375	-1423.783935546875	518.9312133789062	-305.8403625488281	-1392.262939453125	785.8888549804688	-257.8114013671875	-1498.721557617188	41.28433609008789	-345.1950073242188	-1419.764526367188	404.1031799316406	-324.6758728027344	-1281.035888671875	46.75392913818359	-355.8330688476562	-1331.907104492188	42.49707794189453	-405.8016662597656	-1393.218505859375	42.60832595825195	-302.7312316894531	-1550.625122070312	38.44556045532227	-412.9621276855469	-1280.428955078125	726.9256591796875	-637.069091796875	
70	0.6900000000000001	-1521.276123046875	1056.052734375	-388.6989440917969	-1504.869506835938	1060.44921875	-507.5775146484375	-1516.174682617188	1133.407348632812	-467.1170959472656	-1273.279174804688	1324.45458984375	-439.5952758789062	-1524.501586914062	1259.451538085938	-464.2240905761719	-1467.506713867188	1522.19775390625	-462.6162109375	-1300.522583007812	1441.9755859375	-441.1985168457031	-1546.6376953125	1381.808349609375	-395.835693359375	-1474.768310546875	1484.18408203125	-574.6461791992188	-1380.250366210938	1487.0263671875	-620.6871948242188	-1396.97021484375	1366.189697265625	-700.060302734375	-1371.308837890625	1154.650512695312	-717.01123046875	-1449.844482421875	1138.0634765625	-682.82421875	-1292.552612304688	921.7977905273438	-633.8152465820312	-1299.5693359375	904.229248046875	-718.29541015625	-1344.725219726562	1047.63720703125	-722.7182006835938	-1280.976928710938	816.5385131835938	-708.9505615234375	-1249.044799804688	823.2988891601562	-647.0355224609375	-1428.753173828125	1486.017944335938	-286.2347717285156	-1453.955688476562	1421.93603515625	-220.1614074707031	-1476.820190429688	1139.568115234375	-183.8902282714844	-1499.629150390625	1134.198486328125	-275.9667663574219	-1333.789672851562	924.6531982421875	-218.1283111572266	-1392.863403320312	910.0903930664062	-157.0438690185547	-1450.807495117188	1070.913330078125	-169.3300933837891	-1319.987915039062	732.5968627929688	-225.5124816894531	-1295.846069335938	803.989501953125	-200.3981628417969	-1352.95849609375	803.8202514648438	-153.3096771240234	-1440.171508789062	1677.874145507812	-426.899658203125	-1220.894775390625	1725.386596679688	-466.7831420898438	-1248.11572265625	1728.129760742188	-370.590576171875	-1361.213134765625	1681.72900390625	-542.551513671875	-1389.057739257812	993.818359375	-633.7490844726562	-1438.046020507812	1012.819152832031	-270.1210021972656	-1335.67919921875	1053.7568359375	-294.8516235351562	-1294.024658203125	1033.719848632812	-572.8551025390625	-1377.978393554688	507.613037109375	-581.5764770507812	-1370.099975585938	650.7518920898438	-615.4462890625	-1459.95947265625	38.93898391723633	-570.8827514648438	-1425.67041015625	286.0777893066406	-589.4291381835938	-1254.09228515625	46.07864761352539	-484.9285583496094	-1329.134033203125	41.93852996826172	-452.0706481933594	-1331.410278320312	38.59302520751953	-570.1228637695312	-1528.249877929688	44.71159362792969	-528.6728515625	-1423.726318359375	518.919189453125	-305.760498046875	-1392.228759765625	785.8701782226562	-257.7445068359375	-1498.723388671875	41.28804397583008	-345.1943054199219	-1419.717407226562	404.0697326660156	-324.6029663085938	-1281.03662109375	46.75193786621094	-355.8309631347656	-1331.904541015625	42.49986267089844	-405.8036499023438	-1393.216552734375	42.6100959777832	-302.7344665527344	-1550.62744140625	38.45662689208984	-412.9573364257812	-1280.203735351562	727.0369262695312	-636.4490966796875	
71	0.7000000000000001	-1521.171630859375	1056.068603515625	-388.5039672851562	-1504.769897460938	1060.47216796875	-507.3818969726562	-1516.127319335938	1133.427490234375	-466.9281311035156	-1273.1611328125	1324.365112304688	-439.3676147460938	-1524.40185546875	1259.482299804688	-463.9891052246094	-1467.330688476562	1522.262817382812	-462.3902587890625	-1300.308837890625	1441.9404296875	-441.0029602050781	-1546.44189453125	1381.852416992188	-395.5684204101562	-1474.605712890625	1484.17431640625	-574.396728515625	-1380.05712890625	1486.998046875	-620.4506225585938	-1396.871459960938	1366.137939453125	-699.7969360351562	-1371.2861328125	1154.58203125	-716.715576171875	-1449.833251953125	1138.011108398438	-682.5003662109375	-1292.374145507812	921.8373413085938	-633.4458618164062	-1299.462646484375	904.1836547851562	-717.810302734375	-1344.708251953125	1047.573364257812	-722.3634643554688	-1280.903564453125	816.5396118164062	-708.4055786132812	-1248.800048828125	823.4008178710938	-646.4456176757812	-1428.502807617188	1486.008666992188	-285.9991149902344	-1453.741821289062	1421.917114257812	-219.9406890869141	-1476.737915039062	1139.573120117188	-183.6986083984375	-1499.57568359375	1134.228881835938	-275.7626342773438	-1333.835083007812	924.6041870117188	-218.0200805664062	-1392.855590820312	910.0526733398438	-156.9118804931641	-1450.752075195312	1070.914916992188	-169.162353515625	-1320.070678710938	732.55908203125	-225.3759613037109	-1295.904174804688	803.9111938476562	-200.3282928466797	-1353.03564453125	803.833251953125	-153.1427154541016	-1439.75830078125	1677.880249023438	-426.5828857421875	-1220.450317382812	1725.237670898438	-466.5588073730469	-1247.635009765625	1728.018798828125	-370.4141540527344	-1360.888061523438	1681.707641601562	-542.3134155273438	-1389.02783203125	993.8395385742188	-633.6040649414062	-1437.701171875	1012.794006347656	-269.8153991699219	-1335.56689453125	1053.6962890625	-294.662841796875	-1293.943969726562	1033.689575195312	-572.6896362304688	-1377.960327148438	507.6090698242188	-581.5093994140625	-1370.098266601562	650.7677612304688	-615.3618774414062	-1459.953002929688	38.94155883789062	-570.8914794921875	-1425.671997070312	286.0880432128906	-589.405029296875	-1254.095581054688	46.07999038696289	-484.9228210449219	-1329.130737304688	41.93967819213867	-452.0745849609375	-1331.409790039062	38.59182739257812	-570.12353515625	-1528.241821289062	44.67864990234375	-528.662353515625	-1423.665771484375	518.9071044921875	-305.6802368164062	-1392.161499023438	785.8497314453125	-257.6912231445312	-1498.724731445312	41.29090881347656	-345.1943054199219	-1419.666137695312	404.0399780273438	-324.5285339355469	-1281.037475585938	46.75022888183594	-355.8285522460938	-1331.901489257812	42.50113677978516	-405.8048400878906	-1393.213256835938	42.6124267578125	-302.7407531738281	-1550.62890625	38.46520233154297	-412.9537658691406	-1279.994140625	727.1610717773438	-635.8411254882812	
